<svg id="Layer_1" data-name="Layer 1" xmlns="http://www.w3.org/2000/svg" viewBox="0 0 103.41 67.44"><defs><style>.cls-1{fill:#00afa5;}.cls-2{fill:#f0f0f0;}</style></defs><title>Artboard 1128 px</title><path class="cls-1" d="M34.23,62.54a2.25,2.25,0,1,0,2.24,2.25A2.24,2.24,0,0,0,34.23,62.54Z"/><path class="cls-1" d="M72.21,56.44a4.5,4.5,0,1,0,4.48,4.5A4.49,4.49,0,0,0,72.21,56.44Z"/><path class="cls-1" d="M59.55,53.26a3.82,3.82,0,1,0,3.81,3.82A3.81,3.81,0,0,0,59.55,53.26Z"/><path class="cls-1" d="M46.89,57.79A3.15,3.15,0,1,0,50,60.94,3.15,3.15,0,0,0,46.89,57.79Z"/><path class="cls-1" d="M24.26,59.36a1.58,1.58,0,1,0,1.57,1.58A1.57,1.57,0,0,0,24.26,59.36Z"/><path class="cls-2" d="M83.51,21.44l-.88,0h-.25l-.66.05-.26,0-.65.08a26.2,26.2,0,0,0-49.47-5.92,14.57,14.57,0,0,0-2.72-.25A15.06,15.06,0,0,0,14,26.85,16.89,16.89,0,0,0,1,39H1l-.12.54,0,.06v.06c0,.19-.09.38-.12.58l0,.1c0,.24-.07.43-.1.63l0,.21v.07l-.06.5c0,.1,0,.21,0,.32l0,.23c0,.08,0,.16,0,.24,0,.28,0,.55,0,.82a16.79,16.79,0,0,0,16.74,16.8,3.35,3.35,0,0,0,0-6.7A10.1,10.1,0,0,1,17,33.26h.19a10,10,0,0,1,6.2,2.18,3.34,3.34,0,0,0,4.15-5.24A16.3,16.3,0,0,0,21,27a8.42,8.42,0,0,1,7.6-4.87,8.27,8.27,0,0,1,3.36.71l3.39,1.5,1.13-3.54a19.53,19.53,0,0,1,37.9,2.91,19.27,19.27,0,0,0-8.64,9.48,3.35,3.35,0,0,0,1.76,4.39,3.27,3.27,0,0,0,1.31.27,3.34,3.34,0,0,0,3.07-2A12.76,12.76,0,0,1,79,29l.09,0c.24-.09.47-.17.71-.24l.18-.05a12.15,12.15,0,0,1,1.61-.37l.13,0c.27,0,.55-.07.82-.09h.15c.28,0,.57,0,.85,0a12.67,12.67,0,0,1,0,25.33,3.35,3.35,0,0,0,0,6.69,19.36,19.36,0,0,0,0-38.71Z"/></svg>